<svg width="14" height="14" viewBox="0 0 14 14" fill="none" xmlns="http://www.w3.org/2000/svg">
<path d="M12.7143 4.40181L5.71427 11.4018C5.65331 11.463 5.58086 11.5115 5.50109 11.5447C5.42132 11.5778 5.3358 11.5948 5.24943 11.5948C5.16306 11.5948 5.07754 11.5778 4.99777 11.5447C4.918 11.5115 4.84555 11.463 4.78459 11.4018L1.72209 8.33931C1.66104 8.27826 1.61262 8.20579 1.57958 8.12604C1.54654 8.04628 1.52954 7.96079 1.52954 7.87446C1.52954 7.78814 1.54654 7.70265 1.57958 7.62289C1.61262 7.54314 1.66104 7.47067 1.72209 7.40962C1.78313 7.34858 1.8556 7.30015 1.93536 7.26712C2.01512 7.23408 2.1006 7.21708 2.18693 7.21708C2.27326 7.21708 2.35874 7.23408 2.4385 7.26712C2.51826 7.30015 2.59073 7.34858 2.65177 7.40962L5.24998 10.0078L11.7857 3.47321C11.909 3.34993 12.0762 3.28067 12.2505 3.28067C12.4249 3.28067 12.5921 3.34993 12.7154 3.47321C12.8387 3.5965 12.9079 3.76371 12.9079 3.93806C12.9079 4.11241 12.8387 4.27962 12.7154 4.4029L12.7143 4.40181Z" fill="white"/>
</svg>
